<svg xmlns:dc="http://purl.org/dc/elements/1.1/" xmlns:cc="http://creativecommons.org/ns#" xmlns:rdf="http://www.w3.org/1999/02/22-rdf-syntax-ns#" xmlns:svg="http://www.w3.org/2000/svg" xmlns="http://www.w3.org/2000/svg" xmlns:sodipodi="http://sodipodi.sourceforge.net/DTD/sodipodi-0.dtd" xmlns:inkscape="http://www.inkscape.org/namespaces/inkscape" version="1.1" x="0px" y="0px" viewBox="0 0 100 100"><g transform="translate(0,-952.36218)"><path style="text-indent:0;text-transform:none;direction:ltr;block-progression:tb;baseline-shift:baseline;color:#000000;enable-background:accumulate;" d="m 46.687505,961.15918 c -5.905204,0 -10.750003,4.7925 -10.750003,10.6875 0,4.18728 2.469295,7.83429 5.999988,9.59375 l -3.124985,11.1875 c -0.541311,-0.067 -1.097397,-0.0937 -1.656212,-0.0937 -3.43428,0 -6.569681,1.30076 -8.937496,3.43746 l -4.656295,-3.78121 c 0.656504,-1.27589 1.031315,-2.72574 1.031315,-4.25 0,-5.18044 -4.260331,-9.375 -9.406311,-9.375 -5.14591,0 -9.3749882,4.19456 -9.3749882,9.375 0,5.15151 4.2161812,9.37501 9.3749882,9.37501 2.201811,0 4.234783,-0.7809 5.843799,-2.0625 l 4.656189,3.8125 c -1.196185,2.00021 -1.874976,4.32301 -1.874976,6.81241 0,7.3448 5.983086,13.3125 13.343775,13.3125 0.941315,0 1.861901,-0.096 2.749996,-0.2812 l 3.031228,8.1875 c -2.592,1.5522 -4.343705,4.3764 -4.343705,7.5937 0,4.8716 4.028493,8.875 8.90628,8.875 4.877716,0 8.874992,-4.0034 8.874992,-8.875 0,-4.8715 -3.997276,-8.8437 -8.874992,-8.8437 -0.25239,0 -0.502795,0.01 -0.749977,0.031 l -3.093803,-8.3437 c 1.845177,-1.0212 3.412205,-2.4863 4.593792,-4.2188 l 13.937385,6.6875 c -0.02328,0.2021 -0.03118,0.4172 -0.03118,0.625 0,2.9795 2.458984,5.4375 5.437488,5.4375 2.978504,0 5.437488,-2.458 5.437488,-5.4375 0,-2.9795 -2.458984,-5.4375 -5.437488,-5.4375 -1.322185,0 -2.519894,0.515 -3.468685,1.3125 l -14.156326,-6.7812 c 0.369212,-1.2151 0.593716,-2.5097 0.593716,-3.8438 0,-0.4491 -0.0185,-0.9057 -0.0624,-1.3437 l 27.499995,-7.06251 c 1.439894,2.73661 4.300016,4.62501 7.593697,4.62501 4.723192,0 8.593688,-3.87982 8.593688,-8.62501 0,-4.71751 -3.870496,-8.59376 -8.593688,-8.59376 -4.723087,0 -8.625012,3.87625 -8.625012,8.59376 l 0,0.1562 -27.468673,7.03131 c -1.316799,-3.07232 -3.769192,-5.55422 -6.81261,-6.93751 l 3.093803,-11.21876 c 0.2998,0.0254 0.600201,0.0625 0.906201,0.0625 5.905311,0 10.750004,-4.82375 10.750004,-10.71875 2e-6,-5.895 -4.844691,-10.6875 -10.750002,-10.6875 z m 0,4 c 3.749599,0 6.75,2.96476 6.75,6.6875 0,3.72274 -3.000401,6.71875 -6.75,6.71875 -3.749492,0 -6.75,-2.99601 -6.75,-6.71875 0,-3.72274 3.000508,-6.6875 6.75,-6.6875 z m -31.499999,17.40625 c 3.005291,0 5.406307,2.35671 5.406307,5.375 0,2.96837 -2.413913,5.37496 -5.406307,5.37496 -2.992288,0 -5.3750198,-2.40659 -5.3750198,-5.37496 0,-3.01829 2.3697988,-5.375 5.3750198,-5.375 z m 70.40629,6.3125 c 2.557594,0 4.59372,2.05853 4.59372,4.59376 0,2.5864 -2.036126,4.625 -4.59372,4.625 -2.672398,0.039 -4.43491,-1.3594 -4.625008,-4.625 0,-2.53523 2.067519,-4.59376 4.625008,-4.59376 z m -48.437503,7.65626 c 5.213905,0 9.406204,4.16241 9.406204,9.34371 0,5.1814 -4.184007,9.3125 -9.406204,9.3125 -5.222197,0 -9.343807,-4.1227 -9.343807,-9.3125 0,-5.1897 4.130008,-9.34371 9.343807,-9.34371 z m 30.437503,22.65621 c 0.820205,0 1.43752,0.633 1.43752,1.4375 0,0.8045 -0.617315,1.4375 -1.43752,1.4375 -0.820098,0 -1.437484,-0.633 -1.437484,-1.4375 0,-0.8045 0.617386,-1.4375 1.437484,-1.4375 z m -20.624988,10.6563 c 0.165189,-0.017 0.361276,0 0.531284,0 2.719417,0 4.875023,2.1472 4.875023,4.8437 0,2.6965 -2.155606,4.875 -4.875023,4.875 -2.719488,0 -4.906276,-2.1784 -4.906276,-4.875 0,-2.528 1.896272,-4.5963 4.374992,-4.8437 z" fill="#000000" fill-opacity="1" fill-rule="evenodd" stroke="none" marker="none" visibility="visible" display="inline" overflow="visible"></path></g></svg>